<svg width="56" height="56" fill="none" xmlns="http://www.w3.org/2000/svg"><path d="M29.931 14.805c-14.866 0-15.126 1.351-15.126 11.908 0 10.556.26 11.908 15.126 11.908s15.126-1.352 15.126-11.908c0-10.557-.26-11.908-15.126-11.908zm4.848 12.424l-6.792 3.242c-.594.281-1.081-.034-1.081-.706V23.66c0-.67.487-.987 1.081-.705l6.792 3.241c.594.285.594.749 0 1.033z" fill="url(#paint0_linear_109_436)"/><g filter="url(#filter0_bii_109_436)"><circle cx="28" cy="28" r="28" fill="#2D303D" fill-opacity=".2"/></g><path d="M28 17.38c-12.969 0-13.195 1.153-13.195 10.16S15.03 37.7 28 37.7c12.968 0 13.195-1.153 13.195-10.16S40.968 17.38 28 17.38zm4.23 10.6l-5.926 2.766c-.518.24-.943-.029-.943-.601v-5.21c0-.571.425-.842.943-.602L32.23 27.1c.519.243.519.639 0 .882z" fill="url(#paint1_linear_109_436)"/><defs><linearGradient id="paint0_linear_109_436" x1="42.844" y1="13.296" x2="17.963" y2="37.263" gradientUnits="userSpaceOnUse"><stop stop-color="#FE0000"/><stop offset="1" stop-color="#D70375"/></linearGradient><linearGradient id="paint1_linear_109_436" x1="39.264" y1="16.092" x2="18.023" y2="37.012" gradientUnits="userSpaceOnUse"><stop stop-color="#EB0505"/><stop offset="1" stop-color="#CF1178"/></linearGradient><filter id="filter0_bii_109_436" x="-30" y="-30" width="116" height="116" filterUnits="userSpaceOnUse" color-interpolation-filters="sRGB"><feFlood flood-opacity="0" result="BackgroundImageFix"/><feGaussianBlur in="BackgroundImage" stdDeviation="15"/><feComposite in2="SourceAlpha" operator="in" result="effect1_backgroundBlur_109_436"/><feBlend in="SourceGraphic" in2="effect1_backgroundBlur_109_436" result="shape"/><feColorMatrix in="SourceAlpha" values="0 0 0 0 0 0 0 0 0 0 0 0 0 0 0 0 0 0 127 0" result="hardAlpha"/><feOffset dy="2"/><feGaussianBlur stdDeviation="2"/><feComposite in2="hardAlpha" operator="arithmetic" k2="-1" k3="1"/><feColorMatrix values="0 0 0 0 1 0 0 0 0 1 0 0 0 0 1 0 0 0 0.1 0"/><feBlend in2="shape" result="effect2_innerShadow_109_436"/><feColorMatrix in="SourceAlpha" values="0 0 0 0 0 0 0 0 0 0 0 0 0 0 0 0 0 0 127 0" result="hardAlpha"/><feOffset dy="-5"/><feGaussianBlur stdDeviation="6"/><feComposite in2="hardAlpha" operator="arithmetic" k2="-1" k3="1"/><feColorMatrix values="0 0 0 0 0.729481 0 0 0 0 0.0562308 0 0 0 0 0.0562308 0 0 0 0.35 0"/><feBlend in2="effect2_innerShadow_109_436" result="effect3_innerShadow_109_436"/></filter></defs></svg>