<svg width="94" height="25" fill="none" xmlns="http://www.w3.org/2000/svg"><g clip-path="url(#clip0_179_850)" fill="#fff"><path d="M67.644 6.048c3.433 0 6.141 2.629 6.093 5.775-.048 3.24-2.805 5.774-6.19 5.727-3.434-.047-6.045-2.535-6.045-5.774 0-3.24 2.708-5.728 6.142-5.728zm4.836 5.728c0-2.583-2.177-4.601-4.885-4.648-2.756 0-4.933 2.019-4.933 4.648 0 2.629 2.128 4.648 4.885 4.648 2.805.047 4.933-2.02 4.933-4.648zm16.139 4.984c0 .418-.095.791-.617.791-.569 0-.616-.42-.616-.838v-8.29c0-.885-.143-1.164-1.186-1.164h-2.61c-.473 0-1.043 0-1.043-.606 0-.605.57-.605.996-.605h8.823c.427 0 .949.046.949.559 0 .605-.522.652-.996.652h-2.372c-1.376 0-1.376 0-1.376 1.304.048 2.421.048 6.985.048 8.196zm-30.055-.146c0 .421.049.937-.588.937-.588 0-.637-.469-.637-.937 0-2.296.049-2.718-.099-5.014-.098-1.78-1.078-3.186-2.842-3.936-3.48-1.499-7.155.656-7.302 4.311-.098 2.015-.049 2.202-.049 4.217v.797c0 .374-.196.562-.588.562-.392 0-.539-.234-.588-.562v-.281c0-2.25-.098-2.671.05-4.92.146-2.484 1.42-4.405 3.92-5.295 2.45-.843 4.753-.515 6.713 1.218 1.127.984 1.814 2.25 1.863 3.702.098 1.171.147 4.03.147 5.2zM33.131 6.985c0-.422-.047-.937.565-.937.565 0 .612.468.612.937 0 2.296-.047 2.718.094 5.014.094 1.78 1.035 3.186 2.73 3.935 3.34 1.5 6.87-.655 7.01-4.31.095-2.015.048-2.202.048-4.217V6.61c0-.375.188-.562.564-.562.377 0 .518.234.565.562v.281c0 2.25.094 2.671-.047 4.92-.141 2.484-1.365 4.405-3.765 5.295-2.352.843-4.564.515-6.446-1.218-1.083-.984-1.741-2.25-1.788-3.702-.142-1.171-.189-4.03-.142-5.201zm27.381 9.999c0 .327-.27.561-.7.561-.43.047-.699-.187-.699-.514 0-.701-.054-8.553-.054-9.534 0-.561-.107-1.45.7-1.45.914 0 .753.889.753 1.45v9.487zm21.033 0c0 .327-.267.561-.694.561-.426.047-.693-.187-.693-.514 0-.701-.053-8.553-.053-9.534 0-.561-.107-1.45.693-1.45.907 0 .747.889.747 1.45.053.7 0 7.337 0 9.487zm-3.629-5.664c.334 0 .716.039.716.498 0 .498-.43.46-.716.46H75.48c-.286 0-.716.038-.764-.421 0-.498.382-.537.764-.537h2.436z"/></g><g clip-path="url(#clip1_179_850)"><path d="M12.39.12C15.986-.06 19.584.06 23.119 0c.62 0 .992.36 1.302.839 1.612 2.636 3.225 5.391 4.775 8.027.248.48.248.899-.062 1.378a577.14 577.14 0 00-4.9 8.267c-.247.42-.62.54-1.116.54-3.348-.06-6.635-.06-9.922-.06-.682 0-.992-.42-1.303-.9-1.24-2.036-2.356-4.193-3.72-6.17-.497-.778-.31-1.797.434-2.276.806-.48 1.798-.3 2.356.54.62.958 1.117 1.976 1.799 2.995 1.922 2.695 5.271 3.714 8.248 2.516 3.163-1.258 4.837-4.314 4.28-7.429-.56-3.115-3.474-5.451-6.823-5.511-1.55-.06-4.155-.06-5.767-.06-.496 0-1.427-.3-1.55-1.079 0-.777.37-1.377 1.24-1.497z" fill="url(#paint0_linear_179_850)"/></g><g clip-path="url(#clip2_179_850)"><path d="M11.025 23.262H6.188c-.496 0-.93-.12-1.178-.54-1.55-2.635-3.101-5.33-4.714-7.967-.434-.659-.372-1.258.062-1.917 1.55-2.576 3.101-5.152 4.59-7.728.31-.539.806-.838 1.488-.838 3.163 0 6.326 0 9.427-.06.682 0 1.178.24 1.55.779 1.302 2.156 2.543 4.253 3.845 6.41.372.659.434 1.318 0 1.917-.434.539-.992.659-1.613.479-.62-.12-.992-.48-1.302-1.019-.496-.898-.992-1.797-1.55-2.636-2.977-4.373-9.489-4.073-11.97.6-2.542 4.612 1.303 9.645 5.892 9.704l5.892.18c.93.06 1.302.48 1.364 1.258.062.839-.496 1.318-1.302 1.318-2.109.06-3.907.06-5.644.06z" fill="url(#paint1_linear_179_850)"/></g><defs><clipPath id="clip0_179_850"><path fill="#fff" transform="translate(32.313 6)" d="M0 0h61.688v11.839H0z"/></clipPath><clipPath id="clip1_179_850"><path fill="#fff" transform="translate(7.896)" d="M0 0h21.48v19.05H0z"/></clipPath><clipPath id="clip2_179_850"><path fill="#fff" transform="translate(0 4.212)" d="M0 0h21.561v19.05H0z"/></clipPath><linearGradient id="paint0_linear_179_850" x1="8.153" y1="-.52" x2="28.7" y2="19.089" gradientUnits="userSpaceOnUse"><stop stop-color="#58F5F2"/><stop offset="1" stop-color="#130032"/></linearGradient><linearGradient id="paint1_linear_179_850" x1="0" y1="3.871" x2="20.519" y2="24.269" gradientUnits="userSpaceOnUse"><stop stop-color="#6F15E6"/><stop offset="1" stop-color="#130032"/></linearGradient></defs></svg>