<svg width="24" height="24" fill="none" xmlns="http://www.w3.org/2000/svg"><path fill-rule="evenodd" clip-rule="evenodd" d="M2.174 11.57C2.174 6.72 6.708 3 12.016 3c5.308 0 9.841 3.72 9.841 8.57 0 4.852-4.533 8.571-9.841 8.571-1.177 0-2.309-.18-3.358-.511-1.239 1.156-3.038 1.711-5.24 1.798-.896.035-1.543-.898-1.168-1.733.533-1.192 1.22-2.56 1.303-3.752a7.689 7.689 0 01-1.379-4.373zm9.842-6.856c-4.616 0-8.127 3.188-8.127 6.856 0 1.318.44 2.554 1.218 3.601.11.148.17.327.17.511 0 1.4-.559 2.722-1.127 3.976 1.762-.188 2.918-.752 3.615-1.572a.857.857 0 01.955-.248 9.374 9.374 0 003.296.589c4.616 0 8.127-3.188 8.127-6.857 0-3.668-3.511-6.856-8.127-6.856z" fill="#fff"/></svg>